<?xml version="1.0" encoding="UTF-8" standalone="no"?><!DOCTYPE svg PUBLIC "-//W3C//DTD SVG 1.1//EN" "http://www.w3.org/Graphics/SVG/1.1/DTD/svg11.dtd"><svg width="100%" height="100%" viewBox="0 0 750 375" version="1.1" xmlns="http://www.w3.org/2000/svg" xmlns:xlink="http://www.w3.org/1999/xlink" xml:space="preserve" xmlns:serif="http://www.serif.com/" style="fill-rule:evenodd;clip-rule:evenodd;stroke-linejoin:round;stroke-miterlimit:2;"><g><g><path d="M188.784,5.338l204.406,22.701l81.829,182.162l-122.577,159.461l-204.407,-22.701l-81.828,-182.162l122.577,-159.461Z"/><g><g><path d="M138.592,273.272c-2.727,0 -5.494,0.038 -8.302,0.116c-2.807,0.077 -5.414,0.193 -7.821,0.348l-9.625,0.697c0,-0.155 -0.081,-0.697 -0.241,-1.626c-0.16,-0.928 -0.241,-1.625 -0.241,-2.089c0,-1.548 0.722,-2.477 2.166,-2.787c4.171,-0.774 7.54,-1.703 10.107,-2.786c2.567,-1.084 3.85,-2.864 3.85,-5.341l0,-63.158c0,-4.644 -0.842,-7.972 -2.526,-9.984c-1.685,-2.013 -5.335,-3.251 -10.95,-3.715c-2.085,-0.31 -3.128,-1.394 -3.128,-3.251c0,-0.774 0.161,-1.78 0.481,-3.019c2.086,0 5.014,-0.116 8.784,-0.348c3.77,-0.232 6.858,-0.503 9.264,-0.813c3.69,-0.619 6.979,-1.277 9.867,-1.974c2.887,-0.696 4.973,-1.044 6.256,-1.044c2.246,0 3.369,1.161 3.369,3.483c0,2.167 -0.24,4.76 -0.722,7.778c-0.481,3.019 -0.722,7.005 -0.722,11.958l0,64.087c0,2.477 1.244,4.257 3.73,5.341c2.487,1.083 5.976,2.012 10.468,2.786c1.283,0.31 1.925,1.239 1.925,2.787c0,0.464 -0.04,1.161 -0.12,2.089c-0.08,0.929 -0.201,1.471 -0.361,1.626c-0.481,0 -1.564,-0.078 -3.249,-0.232c-1.684,-0.155 -3.73,-0.31 -6.136,-0.465c-2.406,-0.155 -5.013,-0.271 -7.821,-0.348c-2.807,-0.078 -5.575,-0.116 -8.302,-0.116Z" style="fill:#fff;fill-rule:nonzero;"/><ellipse cx="136.6" cy="138.684" rx="22.502" ry="21.713" style="fill:#f02;"/></g><path d="M220.249,181.321c-7.54,0 -13.676,3.174 -18.409,9.52c-4.732,6.347 -7.099,14.938 -7.099,25.774c0,15.016 3.49,26.703 10.468,35.062c6.979,8.359 16.243,12.539 27.794,12.539c5.134,0 9.425,-0.774 12.874,-2.322c3.45,-1.548 6.458,-3.096 9.024,-4.644c0.482,-0.31 1.043,-0.658 1.685,-1.045c0.642,-0.387 1.283,-0.58 1.925,-0.58c0.802,0 1.684,0.541 2.647,1.625c0.963,1.084 1.604,1.935 1.925,2.554c-1.604,1.858 -3.61,3.715 -6.016,5.573c-2.406,1.858 -5.294,3.599 -8.663,5.224c-3.369,1.626 -7.339,2.942 -11.912,3.948c-4.572,1.006 -9.746,1.509 -15.521,1.509c-6.577,0 -12.794,-1.045 -18.649,-3.135c-5.856,-2.089 -10.99,-5.224 -15.401,-9.404c-4.412,-4.179 -7.901,-9.404 -10.468,-15.673c-2.567,-6.269 -3.85,-13.584 -3.85,-21.943c0,-7.895 1.564,-15.131 4.692,-21.71c3.128,-6.579 7.139,-12.191 12.032,-16.835c4.893,-4.644 10.348,-8.281 16.363,-10.913c6.016,-2.632 11.912,-3.947 17.688,-3.947c5.935,0 11.31,0.619 16.122,1.857c4.813,1.239 8.904,2.864 12.273,4.876c3.369,2.013 5.976,4.373 7.821,7.082c1.845,2.709 2.767,5.534 2.767,8.476c0,0.928 -0.802,1.702 -2.406,2.322c-1.605,0.619 -3.409,1.122 -5.415,1.509c-2.005,0.387 -3.93,0.658 -5.775,0.813c-1.845,0.154 -2.928,0.232 -3.249,0.232c-2.085,0 -3.73,-0.968 -4.933,-2.903c-1.203,-1.935 -2.526,-4.024 -3.97,-6.269c-1.444,-2.245 -3.409,-4.334 -5.896,-6.269c-2.487,-1.935 -5.976,-2.903 -10.468,-2.903Z" style="fill:#fff;fill-rule:nonzero;"/><path d="M333.35,259.572c0.802,-0.774 1.484,-1.238 2.045,-1.393c0.562,-0.155 1.003,-0.232 1.324,-0.232c1.444,0 2.727,1.006 3.85,3.018c-4.171,4.489 -8.663,8.127 -13.476,10.914c-4.813,2.786 -9.946,4.179 -15.401,4.179c-3.208,0 -6.256,-0.348 -9.144,-1.045c-2.888,-0.696 -5.374,-2.051 -7.46,-4.063c-2.085,-2.013 -3.73,-4.76 -4.933,-8.243c-1.203,-3.483 -1.805,-8.011 -1.805,-13.584l0,-64.087l-14.438,0l0,-2.554c0,-1.083 0.2,-2.09 0.601,-3.018c0.402,-0.929 1.244,-1.394 2.527,-1.394c4.332,0 7.861,-1.083 10.588,-3.25c2.728,-2.168 4.974,-4.954 6.738,-8.36c1.925,-3.715 3.61,-7.198 5.054,-10.449c1.444,-3.25 3.048,-4.876 4.812,-4.876l4.332,0l0,24.149l28.155,0c0,3.251 -0.361,5.689 -1.083,7.314c-0.722,1.626 -2.045,2.438 -3.971,2.438l-23.101,0l0,57.586c0,4.953 0.241,8.939 0.722,11.958c0.481,3.018 1.203,5.34 2.166,6.966c0.962,1.625 2.085,2.67 3.369,3.134c1.283,0.465 2.727,0.697 4.331,0.697c2.727,0 5.254,-0.581 7.58,-1.742c2.326,-1.16 4.532,-2.515 6.618,-4.063Z" style="fill:#fff;fill-rule:nonzero;"/><path d="M365.596,185.036l-14.439,0l0,-4.179c0,-1.703 0.762,-2.748 2.286,-3.135c1.524,-0.387 3.169,-0.697 4.933,-0.929c1.765,-0.232 3.409,-0.774 4.934,-1.625c1.524,-0.852 2.286,-2.67 2.286,-5.457l0,-10.681c0,-8.514 1.243,-15.789 3.73,-21.827c2.486,-6.037 5.655,-11.029 9.505,-14.976c3.85,-3.948 8.141,-6.85 12.874,-8.708c4.733,-1.857 9.345,-2.786 13.837,-2.786c5.294,0 10.067,0.503 14.318,1.509c4.251,1.006 7.901,2.361 10.949,4.064c3.048,1.702 5.414,3.599 7.099,5.688c1.684,2.09 2.527,4.219 2.527,6.386c0,0.929 -0.682,1.819 -2.046,2.67c-1.363,0.852 -2.888,1.587 -4.572,2.206c-1.684,0.619 -3.329,1.084 -4.933,1.393c-1.604,0.31 -2.727,0.465 -3.369,0.465c-2.246,0 -3.931,-0.929 -5.054,-2.787c-1.764,-3.405 -3.89,-6.424 -6.376,-9.055c-2.487,-2.632 -6.217,-3.948 -11.19,-3.948c-5.776,0 -10.067,2.283 -12.874,6.85c-2.808,4.567 -4.212,11.107 -4.212,19.621l0,29.489l28.396,0c0,3.096 -0.241,5.495 -0.722,7.198c-0.481,1.703 -1.845,2.554 -4.091,2.554l-23.583,0l0,71.053c0,4.025 1.845,6.773 5.535,8.243c3.69,1.471 9.706,2.593 18.048,3.367c1.765,0.31 2.647,1.316 2.647,3.019c0,0.464 -0.08,1.161 -0.241,2.089c-0.16,0.929 -0.24,1.471 -0.24,1.626c-0.481,0 -1.885,-0.078 -4.211,-0.232c-2.327,-0.155 -5.094,-0.31 -8.302,-0.465c-3.209,-0.155 -6.658,-0.271 -10.348,-0.348c-3.69,-0.078 -7.139,-0.116 -10.347,-0.116c-2.728,0 -5.495,0.038 -8.303,0.116c-2.807,0.077 -5.494,0.193 -8.061,0.348l-10.107,0.697c0,-0.155 -0.08,-0.697 -0.24,-1.626c-0.161,-0.928 -0.241,-1.625 -0.241,-2.089c0,-1.548 0.722,-2.477 2.166,-2.787c3.529,-0.619 6.417,-1.509 8.663,-2.67c2.246,-1.161 3.369,-2.98 3.369,-5.457l0,-74.768Z" style="fill:#fff;fill-rule:nonzero;"/></g></g><g><path d="M451.118,260.092c0,-3.9 1.388,-7.313 4.163,-10.238c2.775,-2.925 6.262,-4.387 10.462,-4.387c3.9,0 7.2,1.462 9.9,4.387c2.7,2.925 4.05,6.338 4.05,10.238c0,4.35 -1.35,7.912 -4.05,10.687c-2.7,2.775 -6,4.163 -9.9,4.163c-4.2,0 -7.687,-1.388 -10.462,-4.163c-2.775,-2.775 -4.163,-6.337 -4.163,-10.687Z" style="fill-rule:nonzero;"/><path d="M511.868,197.767c0,-4.8 -0.862,-8.063 -2.587,-9.788c-1.725,-1.725 -5.438,-2.887 -11.138,-3.487c-2.1,0 -3.15,-1.05 -3.15,-3.15c0,-0.75 0.15,-1.725 0.45,-2.925c1.95,0 4.875,-0.113 8.775,-0.338c3.9,-0.225 7.05,-0.487 9.45,-0.787c3.3,-0.6 6.3,-1.238 9,-1.913c2.7,-0.675 4.65,-1.012 5.85,-1.012c1.35,0 2.25,0.3 2.7,0.9c0.45,0.6 0.675,1.425 0.675,2.475c0,2.1 -0.225,4.612 -0.675,7.537c-0.45,2.925 -0.675,6.788 -0.675,11.588l0,52.65c0,9.9 -0.337,18.187 -1.012,24.862c-0.675,6.675 -2.325,12.713 -4.95,18.113c-2.625,5.4 -6.563,10.65 -11.813,15.75c-5.25,5.1 -12.525,11.025 -21.825,17.775c-0.6,-0.45 -1.2,-1.088 -1.8,-1.913c-0.6,-0.825 -0.9,-1.762 -0.9,-2.812c0,-0.6 0.15,-1.088 0.45,-1.463c0.3,-0.375 0.6,-0.712 0.9,-1.012c4.05,-4.05 7.5,-7.8 10.35,-11.25c2.85,-3.45 5.175,-6.938 6.975,-10.463c1.8,-3.525 3.075,-7.275 3.825,-11.25c0.75,-3.975 1.125,-8.587 1.125,-13.837l0,-74.25Zm-3.825,-60.975c0,-3.6 1.238,-6.713 3.713,-9.338c2.475,-2.625 5.662,-3.937 9.562,-3.937c3.6,0 6.6,1.312 9,3.937c2.4,2.625 3.6,5.738 3.6,9.338c0,3.9 -1.2,7.05 -3.6,9.45c-2.4,2.4 -5.4,3.6 -9,3.6c-3.9,0 -7.087,-1.2 -9.562,-3.6c-2.475,-2.4 -3.713,-5.55 -3.713,-9.45Z" style="fill-rule:nonzero;"/><path d="M590.168,253.792c3.75,3.9 7.875,7.012 12.375,9.337c4.5,2.325 9.6,3.488 15.3,3.488c4.35,0 8.175,-0.975 11.475,-2.925c3.3,-1.95 6.038,-4.613 8.213,-7.988c2.175,-3.375 3.825,-7.425 4.95,-12.15c1.125,-4.725 1.687,-9.862 1.687,-15.412c0,-5.7 -0.637,-11.138 -1.912,-16.313c-1.275,-5.175 -3.15,-9.712 -5.625,-13.612c-2.475,-3.9 -5.475,-6.975 -9,-9.225c-3.525,-2.25 -7.463,-3.375 -11.813,-3.375c-3,0 -6,0.862 -9,2.587c-3,1.725 -5.737,3.938 -8.212,6.638c-2.475,2.7 -4.5,5.737 -6.075,9.112c-1.575,3.375 -2.363,6.788 -2.363,10.238l0,39.6Zm-18.9,-56.925c0,-4.2 -0.712,-7.2 -2.137,-9c-1.425,-1.8 -4.688,-2.925 -9.788,-3.375c-1.95,-0.3 -2.925,-1.275 -2.925,-2.925c0,-0.9 0.15,-1.95 0.45,-3.15c1.95,0 4.613,-0.113 7.988,-0.338c3.375,-0.225 6.187,-0.562 8.437,-1.012c3.3,-0.45 6.263,-1.013 8.888,-1.688c2.625,-0.675 4.537,-1.012 5.737,-1.012c1.95,0 2.925,1.125 2.925,3.375c0,1.8 -0.112,3.937 -0.337,6.412c-0.225,2.475 -0.338,6.113 -0.338,10.913c4.5,-5.85 9.563,-10.763 15.188,-14.738c5.625,-3.975 12.562,-5.962 20.812,-5.962c5.1,0 10.013,1.05 14.738,3.15c4.725,2.1 8.887,5.212 12.487,9.337c3.6,4.125 6.488,9.188 8.663,15.188c2.175,6 3.262,12.825 3.262,20.475c0,8.4 -1.575,15.825 -4.725,22.275c-3.15,6.45 -7.05,11.887 -11.7,16.312c-4.65,4.425 -9.712,7.8 -15.187,10.125c-5.475,2.325 -10.538,3.488 -15.188,3.488c-4.8,0 -9.487,-0.45 -14.062,-1.35c-4.575,-0.9 -9.338,-2.475 -14.288,-4.725l0,40.725c0,3.9 1.725,6.562 5.175,7.987c3.45,1.425 9.075,2.513 16.875,3.263c1.65,0.3 2.475,1.275 2.475,2.925c0,0.9 -0.15,2.1 -0.45,3.6c-3.45,-0.3 -8.175,-0.563 -14.175,-0.788c-6,-0.225 -11.625,-0.337 -16.875,-0.337c-3.9,0 -8.025,0.112 -12.375,0.337c-4.35,0.225 -8.475,0.488 -12.375,0.788c-0.3,-1.5 -0.45,-2.7 -0.45,-3.6c0,-1.5 0.675,-2.4 2.025,-2.7c3.3,-0.75 6,-1.65 8.1,-2.7c2.1,-1.05 3.15,-2.775 3.15,-5.175l0,-116.1Z" style="fill-rule:nonzero;"/></g></g></svg>